<svg xmlns="http://www.w3.org/2000/svg" viewBox="0 0 150 150"><defs><style>.cls-1{fill:none;}.cls-2{fill:#000000;fill-rule:evenodd;}</style></defs><path class="cls-1" d="M0,0H150V150H0Z" transform="translate(0 0)"/><path class="cls-2" d="M75,136.44,31.33,60.67h0c22.18,30.17,65.88,29.89,87.24,0Z" transform="translate(0 0)"/><path class="cls-2" d="M121.26,56.18A53.47,53.47,0,0,0,89.67,31.59l9-15.42h45.79Z" transform="translate(0 0)"/><path class="cls-2" d="M28.72,56.23,5.59,16.17H51.35l8.93,15.51A55.62,55.62,0,0,0,28.72,56.23Z" transform="translate(0 0)"/><path class="cls-2" d="M75,80.81A24.52,24.52,0,0,1,62.28,35.32L75,57.06,87.41,35.24A24.46,24.46,0,0,1,75,80.81Z" transform="translate(0 0)"/></svg>