<svg viewBox="0 0 423 174" fill="none" xmlns="http://www.w3.org/2000/svg"><title>Vision</title><path d="M190.648 60.99c1.119 1.174 2.826 1.762 5.12 1.762s3.973-.588 5.036-1.763c1.064-1.23 1.595-2.742 1.595-4.532 0-1.903-.531-3.442-1.595-4.617-1.063-1.175-2.742-1.763-5.036-1.763-2.294 0-4.001.588-5.12 1.763-1.064 1.175-1.595 2.714-1.595 4.616 0 1.791.531 3.302 1.595 4.533ZM137.362 68.208l14.27 45.579h18.718l12.339-45.579h-11.247l-9.285 36.01h-1.982l-10.809-36.01h-12.004ZM228.94 115.214c-6.267 0-11.192-1.315-14.773-3.945-3.525-2.686-5.372-6.38-5.54-11.08h10.492c.168 1.567 1.036 2.994 2.602 4.281 1.567 1.287 4.03 1.93 7.387 1.93 2.798 0 5.008-.503 6.631-1.511 1.679-1.007 2.518-2.378 2.518-4.113 0-1.51-.643-2.714-1.93-3.61-1.231-.894-3.358-1.482-6.38-1.762l-4.029-.42c-5.092-.56-9.009-2.014-11.751-4.364-2.742-2.35-4.113-5.484-4.113-9.401 0-3.134.783-5.764 2.35-7.89 1.567-2.127 3.722-3.722 6.464-4.785 2.797-1.12 5.987-1.68 9.569-1.68 5.595 0 10.128 1.232 13.598 3.694 3.469 2.462 5.288 6.072 5.456 10.828h-10.493c-.112-1.566-.895-2.91-2.35-4.029-1.455-1.119-3.553-1.678-6.295-1.678-2.463 0-4.365.475-5.708 1.427-1.343.95-2.015 2.182-2.015 3.693 0 1.455.532 2.574 1.595 3.357 1.119.784 2.91 1.315 5.372 1.595l4.029.42c5.372.56 9.569 2.042 12.591 4.449 3.078 2.406 4.617 5.651 4.617 9.737 0 3.021-.84 5.651-2.518 7.89-1.623 2.182-3.918 3.889-6.883 5.12-2.966 1.231-6.464 1.847-10.493 1.847ZM255.618 60.99c1.12 1.174 2.826 1.762 5.121 1.762 2.294 0 3.973-.588 5.036-1.763 1.063-1.23 1.595-2.742 1.595-4.532 0-1.903-.532-3.442-1.595-4.617-1.063-1.175-2.742-1.763-5.036-1.763-2.295 0-4.001.588-5.121 1.763-1.063 1.175-1.594 2.714-1.594 4.616 0 1.791.531 3.302 1.594 4.533Z" fill="#000"/><path fill-rule="evenodd" clip-rule="evenodd" d="M299.283 115.382c-4.029 0-7.582-.644-10.66-1.931-3.078-1.287-5.68-3.022-7.807-5.204-2.126-2.239-3.749-4.757-4.868-7.555a24.373 24.373 0 0 1-1.595-8.73V90.2c0-3.134.56-6.1 1.679-8.898a23.594 23.594 0 0 1 4.952-7.554c2.183-2.238 4.813-3.973 7.891-5.204 3.077-1.287 6.547-1.93 10.408-1.93 3.861 0 7.331.643 10.408 1.93 3.078 1.23 5.68 2.966 7.807 5.204a21.87 21.87 0 0 1 4.952 7.554c1.119 2.798 1.679 5.764 1.679 8.898v1.763c0 3.022-.56 5.931-1.679 8.729-1.063 2.798-2.658 5.316-4.784 7.555-2.127 2.182-4.729 3.917-7.807 5.204-3.077 1.287-6.603 1.931-10.576 1.931Zm0-9.989c2.854 0 5.26-.616 7.219-1.847a12.338 12.338 0 0 0 4.449-5.12c1.007-2.182 1.51-4.645 1.51-7.387 0-2.798-.531-5.26-1.594-7.386-1.008-2.183-2.519-3.89-4.533-5.12-1.959-1.288-4.309-1.931-7.051-1.931s-5.12.643-7.135 1.93c-1.958 1.231-3.469 2.938-4.533 5.12-1.063 2.127-1.594 4.59-1.594 7.387 0 2.742.503 5.205 1.511 7.387 1.063 2.126 2.574 3.833 4.532 5.12 1.959 1.231 4.365 1.847 7.219 1.847Z" fill="#000"/><path d="M340.389 76.182a22.255 22.255 0 0 0-1.007 3.258V68.208h-9.234v45.579h11.668V87.01c0-2.966.867-5.316 2.602-7.05 1.791-1.791 4.113-2.687 6.967-2.687 2.798 0 4.98.868 6.547 2.603 1.623 1.734 2.434 4 2.434 6.798v27.113h11.668V87.682c0-6.94-1.399-12.143-4.197-15.613-2.798-3.525-6.911-5.288-12.339-5.288h-.504c-3.637 0-6.687.783-9.149 2.35-2.406 1.567-4.225 3.917-5.456 7.051ZM191.487 76.938v36.849h11.668V68.208h-18.047v8.73h6.379ZM256.458 76.938v36.849h11.667V68.208h-18.047v8.73h6.38Z" fill="#000"/><mask id="a" fill="#fff"><path fill-rule="evenodd" clip-rule="evenodd" d="M86.9 123.154c20.18 0 36.539-16.359 36.539-36.538 0-20.18-16.359-36.539-36.538-36.539-20.18 0-36.539 16.359-36.539 36.539 0 20.179 16.36 36.538 36.539 36.538Zm26.891-40.33c-3.407 3.984-8.206 6.465-13.523 6.465-10.336 0-18.715-9.376-18.715-20.942 0-2.91.53-5.682 1.489-8.2-12.952 1.967-22.877 13.15-22.877 26.651 0 3.94.845 7.681 2.363 11.055 1.54-1.433 3.706-2.325 6.103-2.325 4.676 0 8.466 3.391 8.466 7.575 0 2.809-1.709 5.261-4.247 6.569a26.836 26.836 0 0 0 14.273 4.085c14.889 0 26.959-12.07 26.959-26.959 0-1.35-.1-2.677-.291-3.974Z"/></mask><path fill-rule="evenodd" clip-rule="evenodd" d="M86.9 123.154c20.18 0 36.539-16.359 36.539-36.538 0-20.18-16.359-36.539-36.538-36.539-20.18 0-36.539 16.359-36.539 36.539 0 20.179 16.36 36.538 36.539 36.538Zm26.891-40.33c-3.407 3.984-8.206 6.465-13.523 6.465-10.336 0-18.715-9.376-18.715-20.942 0-2.91.53-5.682 1.489-8.2-12.952 1.967-22.877 13.15-22.877 26.651 0 3.94.845 7.681 2.363 11.055 1.54-1.433 3.706-2.325 6.103-2.325 4.676 0 8.466 3.391 8.466 7.575 0 2.809-1.709 5.261-4.247 6.569a26.836 26.836 0 0 0 14.273 4.085c14.889 0 26.959-12.07 26.959-26.959 0-1.35-.1-2.677-.291-3.974Z" fill="#000"/><path d="m113.791 82.824 2.644-.39-.858-5.812-3.818 4.464 2.032 1.738Zm-30.75-22.677 2.5.951 1.63-4.282-4.53.688.4 2.643ZM62.529 97.853 60.09 98.95l1.53 3.399 2.73-2.539-1.822-1.957Zm10.322 11.819-1.225-2.377-4.177 2.152 3.984 2.492 1.418-2.267Zm47.916-23.056c0 18.703-15.162 33.865-33.865 33.865v5.347c21.656 0 39.212-17.556 39.212-39.212h-5.347ZM86.901 52.75c18.703 0 33.865 15.161 33.865 33.865h5.347c0-21.657-17.556-39.212-39.212-39.212v5.347ZM53.036 86.616c0-18.704 15.162-33.865 33.865-33.865v-5.347c-21.656 0-39.212 17.555-39.212 39.212h5.347ZM86.9 120.48c-18.703 0-33.865-15.162-33.865-33.865h-5.347c0 21.656 17.556 39.212 39.212 39.212v-5.347Zm13.367-28.518c6.185 0 11.699-2.892 15.555-7.401l-4.064-3.476c-2.958 3.46-7.042 5.53-11.491 5.53v5.347ZM78.879 68.347c0 12.752 9.301 23.616 21.389 23.616v-5.347c-8.585 0-16.042-7.889-16.042-18.27H78.88Zm1.664-9.151a25.708 25.708 0 0 0-1.664 9.15h5.347c0-2.584.471-5.033 1.314-7.248l-4.997-1.902ZM62.839 86.798c0-12.16 8.94-22.236 20.604-24.008l-.803-5.286c-14.238 2.162-25.148 14.452-25.148 29.294h5.347Zm2.127 9.957a24.188 24.188 0 0 1-2.127-9.957h-5.347c0 4.325.928 8.44 2.599 12.152l4.875-2.195Zm3.665-3.9c-3.06 0-5.878 1.137-7.924 3.04l3.643 3.915c1.035-.963 2.545-1.609 4.281-1.609v-5.347Zm11.14 10.248c0-5.932-5.275-10.249-11.14-10.249v5.347c3.487 0 5.793 2.467 5.793 4.902h5.347Zm-5.697 8.946c3.291-1.696 5.697-4.99 5.697-8.946h-5.347c0 1.662-1.012 3.272-2.799 4.192l2.45 4.754Zm13.05-.966c-4.727 0-9.13-1.347-12.857-3.678l-2.835 4.534a29.51 29.51 0 0 0 15.691 4.491v-5.347Zm24.284-24.285c0 13.412-10.873 24.285-24.285 24.285v5.347c16.365 0 29.632-13.267 29.632-29.632h-5.347Zm-.262-3.583c.172 1.168.262 2.364.262 3.583h5.347c0-1.481-.109-2.939-.32-4.365l-5.289.782Z" fill="#000" mask="url(#a)"/></svg>