<?xml version="1.0" encoding="utf-8"?>
<svg version="1.1" xmlns="http://www.w3.org/2000/svg" xmlns:xlink="http://www.w3.org/1999/xlink" x="0px" y="0px"
	 viewBox="0 0 506.4 178.5" style="enable-background:new 0 0 506.4 178.5;" xml:space="preserve">
<title>vision-eyewear</title>
<g>
	<g>
		<path d="M409.6,37.3h32.9l0.1,10.5c6.9-6.5,15.2-13.2,27.7-12.9c24.8,0.5,32.2,13.1,32.4,32.7c0.1,20.5,0,60.9,0,60.9h-31.6V59.4
			l-21.2-0.1c-2.1,16.7-13.4,20.1-27.7,20.9v17.5c6.8,0,20.4,0.1,20.4,0.1v30.8h-32.9V37.3z"/>
		<path d="M156.7,97.7h32c2.1,10.4,13.1,13.8,20.4,10.5c2.2-1.1,4.7-3.8,4.9-6.1c0.2-1.7-2.5-5.5-4.5-6.1c-6.2-2-11.5-2.3-17.8-3.9
			c-7-1.8-14.5-2.9-20.6-6.2c-15.3-8.3-17.6-30.8-3.6-41.4c8.3-6.3,19.5-9.2,29.5-9.9c12.1-0.8,23.7,0.1,34.7,7.7
			c8.3,5.7,12.6,10.7,12.9,21.4h-30.8c-2.8-6.7-8.5-10.1-15.5-8.9c-2.5,0.4-6.7,2-6.7,6c0,4.9,4.3,6.2,6.4,6.9
			c7,2.1,14.7,2.4,21.8,4.1c4.2,1,9.1,2.7,13.2,4.3c9.8,3.9,13.9,10.5,14.4,21.6c0.5,12-2.7,20.5-13.7,26.2
			c-11.8,6.2-23.9,6.9-37.7,7c-9.8,0-19-2.2-27.2-8.1C161.4,117.5,156.2,108.5,156.7,97.7"/>
		<polygon points="2.9,37.3 40.1,37.3 54,91.9 69.4,37.3 104.3,37.3 73.8,128.5 33.1,128.5 		"/>
		<rect x="113" y="37.3" width="33.6" height="91.2"/>
		<rect x="113" y="4" width="33.6" height="24.9"/>
		<rect x="257.6" y="37.3" width="33.6" height="91.2"/>
		<rect x="257.6" y="4" width="33.6" height="24.9"/>
		<path d="M350.3,34.2c-28.8,0.1-50.4,21.8-50.4,48.7c0,26.9,22.6,48.7,50.4,48.7c27.8,0,50.4-21.8,50.4-48.7
			C400.7,56,378.7,34.1,350.3,34.2 M350.3,105.7c-12.2,0-15.3-10-15.3-22.4c0-12.4,2.8-22.3,15.3-22.4c12.7-0.1,15.3,10,15.3,22.4
			C365.7,95.7,361.3,105.7,350.3,105.7"/>
	</g>
	<g>
		<path d="M113.7,137.2h28.2v7H122v8.1h18.2v6.4H122v9.2h20.3v7h-28.6V137.2z"/>
		<path d="M169.6,160.2l-13.9-23h9.3l8.8,14.9l8.8-14.9h9.2l-14,23.2v14.4h-8.3V160.2z"/>
		<path d="M207.1,137.2h28.2v7h-19.9v8.1h18.2v6.4h-18.2v9.2h20.3v7h-28.6V137.2z"/>
		<path d="M289.1,174.8h-8.2l-6.4-25.6h-0.1l-6.3,25.6h-8.4l-10-37.6h8.3l6,25.6h0.1l6.5-25.6h7.7l6.4,25.9h0.1l6.2-25.9h8.1
			L289.1,174.8z"/>
		<path d="M315.1,137.2h28.2v7h-19.9v8.1h18.2v6.4h-18.2v9.2h20.3v7h-28.6V137.2z"/>
		<path d="M371.6,137.2h8.5l14.1,37.6h-8.6l-2.8-8.4h-14.1l-3,8.4h-8.4L371.6,137.2z M370.8,160.3h9.8l-4.7-13.8h-0.1L370.8,160.3z"
			/>
		<path d="M409.5,137.2h20.3c1.7,0,3.2,0.3,4.6,0.8c1.4,0.5,2.5,1.3,3.5,2.2c1,0.9,1.7,2.1,2.2,3.3c0.5,1.3,0.8,2.6,0.8,4
			c0,2.2-0.5,4.1-1.4,5.7c-0.9,1.6-2.5,2.8-4.6,3.7v0.1c1,0.3,1.9,0.7,2.5,1.3c0.7,0.6,1.2,1.3,1.6,2.1c0.4,0.8,0.7,1.7,0.9,2.6
			c0.2,0.9,0.3,1.9,0.4,2.8c0,0.6,0.1,1.3,0.1,2.1c0,0.8,0.1,1.6,0.2,2.5c0.1,0.8,0.2,1.6,0.4,2.4c0.2,0.8,0.5,1.4,0.9,2h-8.3
			c-0.2-0.6-0.4-1.3-0.6-2c-0.1-0.7-0.2-1.5-0.3-2.3c-0.1-0.8-0.2-1.6-0.2-2.4c-0.1-0.8-0.1-1.6-0.2-2.3c-0.3-2-0.9-3.4-1.8-4.3
			c-0.9-0.9-2.4-1.4-4.5-1.4h-8.3v14.7h-8.3V137.2z M417.8,154.2h9.1c1.9,0,3.3-0.4,4.2-1.3c1-0.8,1.5-2.2,1.5-4.1
			c0-1.8-0.5-3.2-1.5-4c-1-0.8-2.4-1.2-4.2-1.2h-9.1V154.2z"/>
	</g>
</g>
</svg>