<svg viewBox="0 0 500 500" xmlns="http://www.w3.org/2000/svg"><path d="M197.104 267.538c.559 5.082 5.399 8.776 10.81 8.252 5.412-.526 9.345-5.071 8.786-10.153l-4.543-41.28c-.843-7.077-9.528-10.643-15.632-6.419-2.786 1.927-4.291 5.086-3.964 8.321l4.543 41.279Zm61.646 8.252c5.412.524 10.251-3.17 10.811-8.252l4.542-41.28c.559-5.083-3.374-9.628-8.785-10.152-5.416-.52-10.253 3.169-10.812 8.249l-4.542 41.281c-.56 5.082 3.374 9.629 8.786 10.154Zm-76.274 40.209c-16.813 0-30.49 12.845-30.49 28.634 0 15.793 13.677 28.642 30.49 28.642 16.814 0 30.493-12.849 30.493-28.642 0-15.789-13.679-28.634-30.493-28.634Zm0 38.773c-5.949 0-10.79-4.548-10.79-10.14 0-5.588 4.841-10.132 10.79-10.132 5.95 0 10.791 4.544 10.791 10.132 0 5.592-4.841 10.14-10.791 10.14Zm101.712-38.773c-16.813 0-30.491 12.845-30.491 28.634 0 15.793 13.677 28.642 30.491 28.642 16.815 0 30.495-12.849 30.495-28.642 0-15.789-13.68-28.634-30.495-28.634Zm0 38.773c-5.949 0-10.79-4.548-10.79-10.14 0-5.588 4.841-10.132 10.79-10.132 5.952 0 10.795 4.544 10.795 10.132 0 5.592-4.842 10.14-10.795 10.14Z" style="fill:#747474"/><path d="M343.11 185.247c-1.866-2.267-4.742-3.593-7.793-3.593H138.968l-8.245-29.777c-1.13-4.076-5.049-6.922-9.535-6.921H80.815c-7.582 0-12.322 7.708-8.531 13.876 1.76 2.862 5.012 4.625 8.531 4.625h32.757l8.179 29.535c.04.165.086.33.136.492l30.414 109.831c1.13 4.076 5.049 6.922 9.535 6.921h142.998c4.485.001 8.404-2.845 9.534-6.921l30.483-110.084c.767-2.771.124-5.719-1.741-7.984Zm-45.893 106.491H169.452l-25.361-91.582h178.488l-25.362 91.582ZM194.662 152.895c1.846 1.736 4.352 2.71 6.964 2.707 7.583 0 12.323-7.708 8.532-13.876a9.363 9.363 0 0 0-1.568-1.918l-30.98-29.079c-5.438-4.965-14.559-2.54-16.419 4.364-.84 3.116.104 6.418 2.491 8.721l30.98 29.081Zm70.423 2.706c2.522 0 5.045-.905 6.969-2.712l30.934-29.076c3.845-3.614 3.841-9.471-.007-13.082-3.848-3.61-10.085-3.607-13.929.007l-30.935 29.075c-5.358 5.039-2.9 13.636 4.427 15.474a10.39 10.39 0 0 0 2.541.314Zm-31.743-8.306h.003c5.44 0 9.849-4.14 9.851-9.248l.01-41.087c.002-5.108-4.408-9.251-9.847-9.253h-.003c-5.439-.001-9.85 4.14-9.851 9.248l-.01 41.087c-.001 5.109 4.407 9.251 9.847 9.253Z" style="fill:#747474"/><text style="fill:#5a5a5a;font-size:30px;white-space:pre" transform="matrix(1.28255 0 0 1.23342 -9.925 153.085)" x="70" y="250">Your cart is empty</text></svg>